RobotoFlex-YCPS.ufo
<glyph name="zero" format="1">
  <advance width="1121"/>
  <unicode hex="0030"/>
  <outline>
    <contour>
      <point x="996" y="585" type="line"/>
      <point x="996" y="858"/>
      <point x="841" y="1013"/>
      <point x="560" y="1013" type="curve" smooth="yes"/>
      <point x="280" y="1013"/>
      <point x="125" y="858"/>
      <point x="125" y="585" type="curve"/>
      <point x="125" y="415" type="line"/>
      <point x="125" y="142"/>
      <point x="283" y="-14"/>
      <point x="562" y="-14" type="curve" smooth="yes"/>
      <point x="844" y="-14"/>
      <point x="996" y="142"/>
      <point x="996" y="415" type="curve"/>
    </contour>
    <contour>
      <point x="942" y="411" type="line"/>
      <point x="942" y="190"/>
      <point x="820" y="39"/>
      <point x="562" y="39" type="curve" smooth="yes"/>
      <point x="305" y="39"/>
      <point x="179" y="190"/>
      <point x="179" y="411" type="curve" smooth="yes"/>
      <point x="179" y="591" type="line" smooth="yes"/>
      <point x="179" y="814"/>
      <point x="303" y="959"/>
      <point x="560" y="959" type="curve" smooth="yes"/>
      <point x="818" y="959"/>
      <point x="942" y="814"/>
      <point x="942" y="591" type="curve"/>
    </contour>
  </outline>
</glyph>
<glyph name="one" format="1">
  <advance width="1121"/>
  <unicode hex="0031"/>
  <outline>
    <contour>
      <point x="659" y="1002" type="line"/>
      <point x="648" y="1002" type="line"/>
      <point x="187" y="881" type="line"/>
      <point x="187" y="822" type="line"/>
      <point x="605" y="926" type="line"/>
      <point x="605" y="0" type="line"/>
      <point x="659" y="0" type="line"/>
    </contour>
  </outline>
</glyph>
<glyph name="two" format="1">
  <advance width="1121"/>
  <unicode hex="0032"/>
  <outline>
    <contour>
      <point x="1024" y="54" type="line"/>
      <point x="224" y="54" type="line"/>
      <point x="646" y="380" type="line" smooth="yes"/>
      <point x="794" y="496"/>
      <point x="946" y="620"/>
      <point x="946" y="742" type="curve" smooth="yes"/>
      <point x="946" y="914"/>
      <point x="786" y="1014"/>
      <point x="536" y="1014" type="curve" smooth="yes"/>
      <point x="288" y="1014"/>
      <point x="117" y="877"/>
      <point x="117" y="714" type="curve"/>
      <point x="171" y="714" type="line"/>
      <point x="171" y="855"/>
      <point x="327" y="958"/>
      <point x="536" y="958" type="curve" smooth="yes"/>
      <point x="769" y="958"/>
      <point x="891" y="876"/>
      <point x="891" y="742" type="curve" smooth="yes"/>
      <point x="891" y="655"/>
      <point x="811" y="565"/>
      <point x="630" y="425" type="curve" smooth="yes"/>
      <point x="153" y="49" type="line"/>
      <point x="153" y="0" type="line"/>
      <point x="1024" y="0" type="line"/>
    </contour>
  </outline>
</glyph>
<glyph name="three" format="1">
  <advance width="1121"/>
  <unicode hex="0033"/>
  <outline>
    <contour>
      <point x="417" y="537" type="line"/>
      <point x="417" y="491" type="line"/>
      <point x="532" y="491" type="line"/>
      <point x="799" y="491"/>
      <point x="975" y="610"/>
      <point x="975" y="738" type="curve"/>
      <point x="975" y="912"/>
      <point x="814" y="1014"/>
      <point x="564" y="1014" type="curve" smooth="yes"/>
      <point x="330" y="1014"/>
      <point x="134" y="903"/>
      <point x="134" y="737" type="curve"/>
      <point x="188" y="737" type="line"/>
      <point x="188" y="875"/>
      <point x="354" y="958"/>
      <point x="564" y="958" type="curve" smooth="yes"/>
      <point x="812" y="958"/>
      <point x="921" y="864"/>
      <point x="921" y="742" type="curve"/>
      <point x="921" y="630"/>
      <point x="783" y="537"/>
      <point x="528" y="537" type="curve" smooth="yes"/>
    </contour>
    <contour>
      <point x="417" y="482" type="line"/>
      <point x="528" y="482" type="line" smooth="yes"/>
      <point x="776" y="482"/>
      <point x="953" y="418"/>
      <point x="953" y="264" type="curve" smooth="yes"/>
      <point x="953" y="123"/>
      <point x="815" y="39"/>
      <point x="573" y="39" type="curve" smooth="yes"/>
      <point x="336" y="39"/>
      <point x="157" y="136"/>
      <point x="157" y="275" type="curve"/>
      <point x="103" y="275" type="line"/>
      <point x="103" y="78"/>
      <point x="354" y="-14"/>
      <point x="573" y="-14" type="curve" smooth="yes"/>
      <point x="824" y="-14"/>
      <point x="1007" y="87"/>
      <point x="1007" y="267" type="curve" smooth="yes"/>
      <point x="1007" y="424"/>
      <point x="824" y="526"/>
      <point x="532" y="526" type="curve" smooth="yes"/>
      <point x="417" y="526" type="line"/>
    </contour>
  </outline>
</glyph>
<glyph name="four" format="1">
  <advance width="1121"/>
  <unicode hex="0034"/>
  <outline>
    <contour>
      <point x="1094" y="316" type="line"/>
      <point x="166" y="316" type="line"/>
      <point x="704" y="842" type="line"/>
      <point x="827" y="1000" type="line"/>
      <point x="777" y="1000" type="line"/>
      <point x="82" y="295" type="line"/>
      <point x="82" y="261" type="line"/>
      <point x="1094" y="261" type="line"/>
    </contour>
    <contour>
      <point x="842" y="1000" type="line"/>
      <point x="788" y="1000" type="line"/>
      <point x="788" y="0" type="line"/>
      <point x="842" y="0" type="line"/>
    </contour>
  </outline>
</glyph>
<glyph name="five" format="1">
  <advance width="1121"/>
  <unicode hex="0035"/>
  <outline>
    <contour>
      <point x="272" y="502" type="line"/>
      <point x="348" y="549"/>
      <point x="441" y="578"/>
      <point x="595" y="578" type="curve"/>
      <point x="836" y="578"/>
      <point x="969" y="482"/>
      <point x="969" y="318" type="curve" smooth="yes"/>
      <point x="969" y="138"/>
      <point x="853" y="39"/>
      <point x="614" y="39" type="curve" smooth="yes"/>
      <point x="390" y="39"/>
      <point x="258" y="118"/>
      <point x="237" y="262" type="curve"/>
      <point x="182" y="262" type="line"/>
      <point x="204" y="76"/>
      <point x="386" y="-14"/>
      <point x="614" y="-14" type="curve" smooth="yes"/>
      <point x="908" y="-14"/>
      <point x="1024" y="127"/>
      <point x="1024" y="318" type="curve" smooth="yes"/>
      <point x="1024" y="515"/>
      <point x="845" y="634"/>
      <point x="594" y="634" type="curve" smooth="yes"/>
      <point x="458" y="634"/>
      <point x="337" y="600"/>
      <point x="289" y="573" type="curve"/>
      <point x="348" y="942" type="line"/>
      <point x="1009" y="942" type="line"/>
      <point x="1009" y="1000" type="line"/>
      <point x="299" y="1000" type="line"/>
      <point x="231" y="518" type="line"/>
    </contour>
  </outline>
</glyph>
<glyph name="six" format="1">
  <advance width="1121"/>
  <unicode hex="0036"/>
  <outline>
    <contour>
      <point x="821" y="1009" type="line"/>
      <point x="443" y="1009"/>
      <point x="128" y="816"/>
      <point x="128" y="447" type="curve"/>
      <point x="128" y="345" type="line"/>
      <point x="128" y="136"/>
      <point x="332" y="-14"/>
      <point x="602" y="-14" type="curve" smooth="yes"/>
      <point x="844" y="-14"/>
      <point x="1013" y="136"/>
      <point x="1013" y="328" type="curve"/>
      <point x="1013" y="510"/>
      <point x="860" y="656"/>
      <point x="592" y="656" type="curve"/>
      <point x="326" y="656"/>
      <point x="135" y="529"/>
      <point x="135" y="401" type="curve"/>
      <point x="174" y="371" type="line"/>
      <point x="174" y="500"/>
      <point x="374" y="601"/>
      <point x="585" y="601" type="curve"/>
      <point x="836" y="601"/>
      <point x="959" y="478"/>
      <point x="959" y="326" type="curve" smooth="yes"/>
      <point x="959" y="172"/>
      <point x="821" y="39"/>
      <point x="602" y="39" type="curve" smooth="yes"/>
      <point x="356" y="39"/>
      <point x="182" y="157"/>
      <point x="182" y="344" type="curve" smooth="yes"/>
      <point x="182" y="479" type="line" smooth="yes"/>
      <point x="182" y="793"/>
      <point x="475" y="955"/>
      <point x="821" y="955" type="curve"/>
      <point x="840" y="955" type="line"/>
      <point x="840" y="1009" type="line"/>
    </contour>
  </outline>
</glyph>
<glyph name="seven" format="1">
  <advance width="1121"/>
  <unicode hex="0037"/>
  <outline>
    <contour>
      <point x="1007" y="1000" type="line"/>
      <point x="77" y="1000" type="line"/>
      <point x="77" y="944" type="line"/>
      <point x="945" y="944" type="line"/>
      <point x="311" y="0" type="line"/>
      <point x="366" y="0" type="line"/>
      <point x="1007" y="964" type="line"/>
    </contour>
  </outline>
</glyph>
<glyph name="eight" format="1">
  <advance width="1121"/>
  <unicode hex="0038"/>
  <outline>
    <contour>
      <point x="1028" y="263" type="curve" smooth="yes"/>
      <point x="1028" y="420"/>
      <point x="820" y="528"/>
      <point x="563" y="528" type="curve" smooth="yes"/>
      <point x="302" y="528"/>
      <point x="100" y="420"/>
      <point x="100" y="263" type="curve" smooth="yes"/>
      <point x="100" y="80"/>
      <point x="302" y="-14"/>
      <point x="565" y="-14" type="curve" smooth="yes"/>
      <point x="822" y="-14"/>
      <point x="1028" y="80"/>
    </contour>
    <contour>
      <point x="973" y="261" type="curve" smooth="yes"/>
      <point x="973" y="118"/>
      <point x="792" y="39"/>
      <point x="565" y="39" type="curve" smooth="yes"/>
      <point x="332" y="39"/>
      <point x="154" y="118"/>
      <point x="154" y="261" type="curve" smooth="yes"/>
      <point x="154" y="396"/>
      <point x="332" y="485"/>
      <point x="563" y="485" type="curve" smooth="yes"/>
      <point x="790" y="485"/>
      <point x="973" y="396"/>
    </contour>
    <contour>
      <point x="986" y="743" type="curve" smooth="yes"/>
      <point x="986" y="917"/>
      <point x="796" y="1014"/>
      <point x="561" y="1014" type="curve" smooth="yes"/>
      <point x="323" y="1014"/>
      <point x="141" y="917"/>
      <point x="141" y="743" type="curve" smooth="yes"/>
      <point x="141" y="595"/>
      <point x="323" y="493"/>
      <point x="563" y="493" type="curve" smooth="yes"/>
      <point x="798" y="493"/>
      <point x="986" y="595"/>
    </contour>
    <contour>
      <point x="932" y="745" type="curve" smooth="yes"/>
      <point x="932" y="618"/>
      <point x="768" y="539"/>
      <point x="563" y="539" type="curve" smooth="yes"/>
      <point x="352" y="539"/>
      <point x="195" y="618"/>
      <point x="195" y="745" type="curve" smooth="yes"/>
      <point x="195" y="879"/>
      <point x="352" y="958"/>
      <point x="561" y="958" type="curve" smooth="yes"/>
      <point x="766" y="958"/>
      <point x="932" y="870"/>
    </contour>
  </outline>
</glyph>
<glyph name="nine" format="1">
  <advance width="1121"/>
  <unicode hex="0039"/>
  <outline>
    <contour>
      <point x="300" y="43" type="line"/>
      <point x="298" y="-11" type="line"/>
      <point x="332" y="-11" type="line"/>
      <point x="779" y="-11"/>
      <point x="993" y="207"/>
      <point x="993" y="522" type="curve"/>
      <point x="993" y="616" type="line"/>
      <point x="993" y="864"/>
      <point x="822" y="1014"/>
      <point x="531" y="1014" type="curve" smooth="yes"/>
      <point x="274" y="1014"/>
      <point x="103" y="853"/>
      <point x="103" y="660" type="curve"/>
      <point x="103" y="483"/>
      <point x="267" y="324"/>
      <point x="523" y="324" type="curve"/>
      <point x="781" y="324"/>
      <point x="983" y="453"/>
      <point x="983" y="612" type="curve"/>
      <point x="951" y="638" type="line"/>
      <point x="951" y="533"/>
      <point x="815" y="378"/>
      <point x="523" y="378" type="curve"/>
      <point x="292" y="378"/>
      <point x="157" y="516"/>
      <point x="157" y="662" type="curve"/>
      <point x="157" y="816"/>
      <point x="303" y="958"/>
      <point x="535" y="958" type="curve" smooth="yes"/>
      <point x="789" y="958"/>
      <point x="939" y="844"/>
      <point x="939" y="620" type="curve" smooth="yes"/>
      <point x="939" y="486" type="line" smooth="yes"/>
      <point x="939" y="225"/>
      <point x="750" y="43"/>
      <point x="332" y="43" type="curve"/>
    </contour>
  </outline>
</glyph>
<glyph name="B" format="1">
  <advance width="1235"/>
  <unicode hex="0042"/>
  <outline>
    <contour>
      <point x="685" y="487" type="line"/>
      <point x="770" y="511" type="line"/>
      <point x="957" y="525"/>
      <point x="1059" y="616"/>
      <point x="1059" y="740" type="curve"/>
      <point x="1059" y="918"/>
      <point x="877" y="1000"/>
      <point x="583" y="1000" type="curve"/>
      <point x="200" y="1000" type="line"/>
      <point x="200" y="0" type="line"/>
      <point x="254" y="0" type="line"/>
      <point x="254" y="944" type="line"/>
      <point x="583" y="944" type="line"/>
      <point x="860" y="944"/>
      <point x="1004" y="878"/>
      <point x="1004" y="742" type="curve"/>
      <point x="1004" y="608"/>
      <point x="867" y="541"/>
      <point x="603" y="541" type="curve"/>
      <point x="231" y="541" type="line"/>
      <point x="233" y="487" type="line"/>
    </contour>
    <contour>
      <point x="675" y="0" type="line"/>
      <point x="940" y="0"/>
      <point x="1125" y="97"/>
      <point x="1125" y="277" type="curve" smooth="yes"/>
      <point x="1125" y="400"/>
      <point x="984" y="508"/>
      <point x="800" y="522" type="curve"/>
      <point x="796" y="541" type="line"/>
      <point x="451" y="541" type="line"/>
      <point x="449" y="487" type="line"/>
      <point x="685" y="487" type="line" smooth="yes"/>
      <point x="943" y="487"/>
      <point x="1071" y="390"/>
      <point x="1071" y="275" type="curve" smooth="yes"/>
      <point x="1071" y="135"/>
      <point x="920" y="54"/>
      <point x="675" y="54" type="curve" smooth="yes"/>
      <point x="248" y="54" type="line"/>
      <point x="231" y="0" type="line"/>
    </contour>
    <contour>
      <point x="1235" y="1154" type="move" name="top0315"/>
    </contour>
    <contour>
      <point x="1235" y="1600" type="move" name="top_dd"/>
    </contour>
    <contour>
      <point x="560" y="1154" type="move" name="top"/>
    </contour>
    <contour>
      <point x="1235" y="-407" type="move" name="bottom_dd"/>
    </contour>
    <contour>
      <point x="560" y="10" type="move" name="bottom"/>
    </contour>
  </outline>
</glyph>
<glyph name="C" format="1">
  <advance width="1327"/>
  <unicode hex="0043"/>
  <outline>
    <contour>
      <point x="1136" y="308" type="line"/>
      <point x="1106" y="125"/>
      <point x="941" y="39"/>
      <point x="671" y="39" type="curve" smooth="yes"/>
      <point x="388" y="39"/>
      <point x="198" y="200"/>
      <point x="198" y="429" type="curve" smooth="yes"/>
      <point x="198" y="569" type="line" smooth="yes"/>
      <point x="198" y="803"/>
      <point x="388" y="958"/>
      <point x="671" y="958" type="curve" smooth="yes"/>
      <point x="947" y="958"/>
      <point x="1106" y="864"/>
      <point x="1136" y="691" type="curve"/>
      <point x="1190" y="691" type="line"/>
      <point x="1160" y="900"/>
      <point x="963" y="1014"/>
      <point x="671" y="1014" type="curve" smooth="yes"/>
      <point x="351" y="1014"/>
      <point x="144" y="833"/>
      <point x="144" y="569" type="curve"/>
      <point x="144" y="429" type="line"/>
      <point x="144" y="165"/>
      <point x="351" y="-14"/>
      <point x="671" y="-14" type="curve" smooth="yes"/>
      <point x="963" y="-14"/>
      <point x="1160" y="98"/>
      <point x="1190" y="308" type="curve"/>
    </contour>
    <contour>
      <point x="1327" y="1143" type="move" name="top0315"/>
    </contour>
    <contour>
      <point x="1327" y="1600" type="move" name="top_dd"/>
    </contour>
    <contour>
      <point x="678" y="1143" type="move" name="top"/>
    </contour>
    <contour>
      <point x="1327" y="-407" type="move" name="bottom_dd"/>
    </contour>
    <contour>
      <point x="678" y="-7" type="move" name="bottom"/>
    </contour>
  </outline>
</glyph>
<glyph name="D" format="1">
  <advance width="1340"/>
  <unicode hex="0044"/>
  <outline>
    <contour>
      <point x="603" y="0" type="line"/>
      <point x="947" y="0"/>
      <point x="1204" y="179"/>
      <point x="1204" y="446" type="curve"/>
      <point x="1204" y="552" type="line"/>
      <point x="1204" y="820"/>
      <point x="947" y="1000"/>
      <point x="603" y="1000" type="curve"/>
      <point x="242" y="1000" type="line"/>
      <point x="242" y="944" type="line"/>
      <point x="603" y="944" type="line"/>
      <point x="916" y="944"/>
      <point x="1150" y="788"/>
      <point x="1150" y="554" type="curve"/>
      <point x="1150" y="446" type="line" smooth="yes"/>
      <point x="1150" y="216"/>
      <point x="916" y="54"/>
      <point x="603" y="54" type="curve"/>
      <point x="250" y="54" type="line"/>
      <point x="248" y="0" type="line"/>
    </contour>
    <contour>
      <point x="254" y="1000" type="line"/>
      <point x="200" y="1000" type="line"/>
      <point x="200" y="0" type="line"/>
      <point x="254" y="0" type="line"/>
    </contour>
    <contour>
      <point x="1340" y="1154" type="move" name="top0315"/>
    </contour>
    <contour>
      <point x="1340" y="1600" type="move" name="top_dd"/>
    </contour>
    <contour>
      <point x="359" y="506" type="move" name="cross"/>
    </contour>
    <contour>
      <point x="590" y="1154" type="move" name="top"/>
    </contour>
    <contour>
      <point x="1340" y="-407" type="move" name="bottom_dd"/>
    </contour>
    <contour>
      <point x="590" y="10" type="move" name="bottom"/>
    </contour>
  </outline>
</glyph>
<glyph name="E" format="1">
  <advance width="1166"/>
  <unicode hex="0045"/>
  <outline>
    <contour>
      <point x="1086" y="54" type="line"/>
      <point x="219" y="54" type="line"/>
      <point x="219" y="0" type="line"/>
      <point x="1086" y="0" type="line"/>
    </contour>
    <contour>
      <point x="254" y="1000" type="line"/>
      <point x="200" y="1000" type="line"/>
      <point x="200" y="0" type="line"/>
      <point x="254" y="0" type="line"/>
    </contour>
    <contour>
      <point x="984" y="552" type="line"/>
      <point x="219" y="552" type="line"/>
      <point x="219" y="498" type="line"/>
      <point x="984" y="498" type="line"/>
    </contour>
    <contour>
      <point x="1086" y="1000" type="line"/>
      <point x="219" y="1000" type="line"/>
      <point x="219" y="944" type="line"/>
      <point x="1086" y="944" type="line"/>
    </contour>
    <contour>
      <point x="1027" y="0" type="move" name="ogonek"/>
    </contour>
    <contour>
      <point x="1166" y="1600" type="move" name="top_dd"/>
    </contour>
    <contour>
      <point x="619" y="7" type="move" name="bottom"/>
    </contour>
    <contour>
      <point x="1166" y="-407" type="move" name="bottom_dd"/>
    </contour>
    <contour>
      <point x="1166" y="1154" type="move" name="top0315"/>
    </contour>
    <contour>
      <point x="619" y="1154" type="move" name="top"/>
    </contour>
    <contour>
      <point x="-70" y="1001" type="move" name="tonos"/>
    </contour>
  </outline>
</glyph>
<glyph name="G" format="1">
  <advance width="1406"/>
  <unicode hex="0047"/>
  <outline>
    <contour>
      <point x="1226" y="463" type="line"/>
      <point x="727" y="463" type="line"/>
      <point x="727" y="409" type="line"/>
      <point x="1172" y="409" type="line"/>
      <point x="1172" y="134" type="line"/>
      <point x="1127" y="97"/>
      <point x="967" y="39"/>
      <point x="729" y="39" type="curve" smooth="yes"/>
      <point x="421" y="39"/>
      <point x="222" y="199"/>
      <point x="222" y="435" type="curve" smooth="yes"/>
      <point x="222" y="578" type="line" smooth="yes"/>
      <point x="222" y="803"/>
      <point x="415" y="958"/>
      <point x="712" y="958" type="curve" smooth="yes"/>
      <point x="1015" y="958"/>
      <point x="1140" y="848"/>
      <point x="1170" y="724" type="curve"/>
      <point x="1224" y="724" type="line"/>
      <point x="1197" y="888"/>
      <point x="1027" y="1014"/>
      <point x="712" y="1014" type="curve" smooth="yes"/>
      <point x="391" y="1014"/>
      <point x="168" y="840"/>
      <point x="168" y="576" type="curve" smooth="yes"/>
      <point x="168" y="435" type="line" smooth="yes"/>
      <point x="168" y="163"/>
      <point x="397" y="-14"/>
      <point x="729" y="-14" type="curve" smooth="yes"/>
      <point x="1013" y="-14"/>
      <point x="1179" y="65"/>
      <point x="1226" y="114" type="curve"/>
    </contour>
    <contour>
      <point x="1406" y="1143" type="move" name="top0315"/>
    </contour>
    <contour>
      <point x="1406" y="1600" type="move" name="top_dd"/>
    </contour>
    <contour>
      <point x="703" y="1143" type="move" name="top"/>
    </contour>
    <contour>
      <point x="1406" y="-407" type="move" name="bottom_dd"/>
    </contour>
    <contour>
      <point x="729" y="-2" type="move" name="bottom"/>
    </contour>
  </outline>
</glyph>
<glyph name="H" format="1">
  <advance width="1438"/>
  <unicode hex="0048"/>
  <outline>
    <contour>
      <point x="1207" y="506" type="line"/>
      <point x="227" y="506" type="line"/>
      <point x="227" y="452" type="line"/>
      <point x="1207" y="452" type="line"/>
    </contour>
    <contour>
      <point x="254" y="1000" type="line"/>
      <point x="200" y="1000" type="line"/>
      <point x="200" y="0" type="line"/>
      <point x="254" y="0" type="line"/>
    </contour>
    <contour>
      <point x="1238" y="1000" type="line"/>
      <point x="1184" y="1000" type="line"/>
      <point x="1184" y="0" type="line"/>
      <point x="1238" y="0" type="line"/>
    </contour>
    <contour>
      <point x="1438" y="1600" type="move" name="top_dd"/>
    </contour>
    <contour>
      <point x="716" y="10" type="move" name="bottom"/>
    </contour>
    <contour>
      <point x="1438" y="-407" type="move" name="bottom_dd"/>
    </contour>
    <contour>
      <point x="1438" y="1154" type="move" name="top0315"/>
    </contour>
    <contour>
      <point x="716" y="1154" type="move" name="top"/>
    </contour>
    <contour>
      <point x="-58" y="1001" type="move" name="tonos"/>
    </contour>
    <contour>
      <point x="1238" y="0" type="move" name="right"/>
    </contour>
  </outline>
</glyph>
<glyph name="I" format="1">
  <advance width="534"/>
  <unicode hex="0049"/>
  <outline>
    <contour>
      <point x="294" y="1000" type="line"/>
      <point x="240" y="1000" type="line"/>
      <point x="240" y="0" type="line"/>
      <point x="294" y="0" type="line"/>
    </contour>
    <contour>
      <point x="240" y="0" type="line"/>
      <point x="294" y="0" type="line"/>
      <point x="294" y="54" type="line"/>
      <point x="240" y="54" type="line"/>
    </contour>
    <contour>
      <point x="240" y="946" type="line"/>
      <point x="294" y="946" type="line"/>
      <point x="294" y="1000" type="line"/>
      <point x="240" y="1000" type="line"/>
    </contour>
    <contour>
      <point x="288" y="0" type="move" name="ogonek"/>
    </contour>
    <contour>
      <point x="268" y="2" type="move" name="bottom"/>
    </contour>
    <contour>
      <point x="534" y="1600" type="move" name="top_dd"/>
    </contour>
    <contour>
      <point x="534" y="-407" type="move" name="bottom_dd"/>
    </contour>
    <contour>
      <point x="534" y="1154" type="move" name="top0315"/>
    </contour>
    <contour>
      <point x="268" y="1154" type="move" name="top"/>
    </contour>
    <contour>
      <point x="-32" y="997" type="move" name="tonos"/>
    </contour>
    <contour>
      <point x="294" y="0" type="move" name="right"/>
    </contour>
  </outline>
</glyph>
<glyph name="J" format="1">
  <advance width="1125"/>
  <unicode hex="004A"/>
  <outline>
    <contour>
      <point x="876" y="274" type="line"/>
      <point x="876" y="137"/>
      <point x="710" y="39"/>
      <point x="510" y="39" type="curve" smooth="yes"/>
      <point x="267" y="39"/>
      <point x="144" y="123"/>
      <point x="144" y="276" type="curve"/>
      <point x="90" y="276" type="line"/>
      <point x="90" y="80"/>
      <point x="253" y="-14"/>
      <point x="510" y="-14" type="curve" smooth="yes"/>
      <point x="747" y="-14"/>
      <point x="930" y="102"/>
      <point x="930" y="274" type="curve"/>
      <point x="930" y="1000" type="line"/>
      <point x="876" y="1000" type="line"/>
    </contour>
    <contour>
      <point x="1125" y="1171" type="move" name="top0315"/>
    </contour>
    <contour>
      <point x="1125" y="1600" type="move" name="top_dd"/>
    </contour>
    <contour>
      <point x="902" y="1171" type="move" name="top"/>
    </contour>
    <contour>
      <point x="1125" y="-407" type="move" name="bottom_dd"/>
    </contour>
    <contour>
      <point x="512" y="-10" type="move" name="bottom"/>
    </contour>
  </outline>
</glyph>
<glyph name="K" format="1">
  <advance width="1300"/>
  <unicode hex="004B"/>
  <outline>
    <contour>
      <point x="254" y="1000" type="line"/>
      <point x="200" y="1000" type="line"/>
      <point x="200" y="0" type="line"/>
      <point x="254" y="0" type="line"/>
    </contour>
    <contour>
      <point x="1176" y="1000" type="line"/>
      <point x="1098" y="1000" type="line"/>
      <point x="492" y="593" type="line"/>
      <point x="240" y="418" type="line"/>
      <point x="232" y="348" type="line"/>
      <point x="525" y="546" type="line"/>
    </contour>
    <contour>
      <point x="1156" y="0" type="line"/>
      <point x="1226" y="0" type="line"/>
      <point x="503" y="577" type="line"/>
      <point x="470" y="526" type="line"/>
    </contour>
    <contour>
      <point x="1300" y="1600" type="move" name="top_dd"/>
    </contour>
    <contour>
      <point x="273" y="844" type="move" name="cross"/>
    </contour>
    <contour>
      <point x="623" y="-53" type="move" name="bottom"/>
    </contour>
    <contour>
      <point x="1300" y="-407" type="move" name="bottom_dd"/>
    </contour>
    <contour>
      <point x="1300" y="1204" type="move" name="top0315"/>
    </contour>
    <contour>
      <point x="602" y="1204" type="move" name="top"/>
    </contour>
    <contour>
      <point x="1180" y="17" type="move" name="right"/>
    </contour>
  </outline>
</glyph>
<glyph name="L" format="1">
  <advance width="1057"/>
  <unicode hex="004C"/>
  <outline>
    <contour>
      <point x="1002" y="54" type="line"/>
      <point x="220" y="54" type="line"/>
      <point x="220" y="0" type="line"/>
      <point x="1002" y="0" type="line"/>
    </contour>
    <contour>
      <point x="255" y="1000" type="line"/>
      <point x="200" y="1000" type="line"/>
      <point x="200" y="0" type="line"/>
      <point x="255" y="0" type="line"/>
    </contour>
    <contour>
      <point x="1057" y="1600" type="move" name="top_dd"/>
    </contour>
    <contour>
      <point x="625" y="7" type="move" name="bottom"/>
    </contour>
    <contour>
      <point x="1057" y="-407" type="move" name="bottom_dd"/>
    </contour>
    <contour>
      <point x="1057" y="1190" type="move" name="top0315"/>
    </contour>
    <contour>
      <point x="568" y="999" type="move" name="caron"/>
    </contour>
    <contour>
      <point x="232" y="1190" type="move" name="top"/>
    </contour>
    <contour>
      <point x="601" y="523" type="move" name="dot"/>
    </contour>
  </outline>
</glyph>
<glyph name="M" format="1">
  <advance width="1756"/>
  <unicode hex="004D"/>
  <outline>
    <contour>
      <point x="216" y="1000" type="line"/>
      <point x="855" y="0" type="line"/>
      <point x="898" y="0" type="line"/>
      <point x="1537" y="1000" type="line"/>
      <point x="1477" y="1000" type="line"/>
      <point x="876" y="84" type="line"/>
      <point x="277" y="1000" type="line"/>
    </contour>
    <contour>
      <point x="200" y="1000" type="line"/>
      <point x="200" y="0" type="line"/>
      <point x="254" y="0" type="line"/>
      <point x="254" y="462" type="line"/>
      <point x="254" y="1000" type="line"/>
    </contour>
    <contour>
      <point x="1502" y="1000" type="line"/>
      <point x="1502" y="462" type="line"/>
      <point x="1502" y="0" type="line"/>
      <point x="1556" y="0" type="line"/>
      <point x="1556" y="1000" type="line"/>
    </contour>
    <contour>
      <point x="1756" y="1154" type="move" name="top0315"/>
    </contour>
    <contour>
      <point x="1756" y="1600" type="move" name="top_dd"/>
    </contour>
    <contour>
      <point x="890" y="1154" type="move" name="top"/>
    </contour>
    <contour>
      <point x="1756" y="-407" type="move" name="bottom_dd"/>
    </contour>
    <contour>
      <point x="1556" y="0" type="move" name="right"/>
    </contour>
    <contour>
      <point x="879" y="10" type="move" name="bottom"/>
    </contour>
  </outline>
</glyph>
<glyph name="N" format="1">
  <advance width="1449"/>
  <unicode hex="004E"/>
  <outline>
    <contour>
      <point x="1249" y="1000" type="line"/>
      <point x="1195" y="1000" type="line"/>
      <point x="1195" y="92" type="line"/>
      <point x="255" y="1000" type="line"/>
      <point x="200" y="1000" type="line"/>
      <point x="200" y="0" type="line"/>
      <point x="254" y="0" type="line"/>
      <point x="254" y="911" type="line"/>
      <point x="1195" y="0" type="line"/>
      <point x="1249" y="0" type="line"/>
    </contour>
    <contour>
      <point x="1449" y="1154" type="move" name="top0315"/>
    </contour>
    <contour>
      <point x="1449" y="1600" type="move" name="top_dd"/>
    </contour>
    <contour>
      <point x="726" y="1154" type="move" name="top"/>
    </contour>
    <contour>
      <point x="1449" y="-407" type="move" name="bottom_dd"/>
    </contour>
    <contour>
      <point x="1249" y="0" type="move" name="right"/>
    </contour>
    <contour>
      <point x="726" y="7" type="move" name="bottom"/>
    </contour>
  </outline>
</glyph>
<glyph name="O" format="1">
  <advance width="1364"/>
  <unicode hex="004F"/>
  <outline>
    <contour>
      <point x="1231" y="563" type="line"/>
      <point x="1231" y="835"/>
      <point x="1016" y="1014"/>
      <point x="681" y="1014" type="curve" smooth="yes"/>
      <point x="347" y="1014"/>
      <point x="133" y="835"/>
      <point x="133" y="563" type="curve"/>
      <point x="133" y="436" type="line"/>
      <point x="133" y="164"/>
      <point x="349" y="-14"/>
      <point x="683" y="-14" type="curve" smooth="yes"/>
      <point x="1018" y="-14"/>
      <point x="1231" y="164"/>
      <point x="1231" y="436" type="curve"/>
    </contour>
    <contour>
      <point x="1177" y="436" type="line"/>
      <point x="1177" y="198"/>
      <point x="997" y="40"/>
      <point x="683" y="40" type="curve" smooth="yes"/>
      <point x="371" y="40"/>
      <point x="188" y="198"/>
      <point x="188" y="436" type="curve" smooth="yes"/>
      <point x="188" y="565" type="line" smooth="yes"/>
      <point x="188" y="801"/>
      <point x="369" y="958"/>
      <point x="681" y="958" type="curve" smooth="yes"/>
      <point x="995" y="958"/>
      <point x="1177" y="801"/>
      <point x="1177" y="565" type="curve"/>
    </contour>
    <contour>
      <point x="1364" y="1143" type="move" name="top0315"/>
    </contour>
    <contour>
      <point x="1364" y="1600" type="move" name="top_dd"/>
    </contour>
    <contour>
      <point x="676" y="1143" type="move" name="top"/>
    </contour>
    <contour>
      <point x="130" y="998" type="move" name="tonos"/>
    </contour>
    <contour>
      <point x="1364" y="-407" type="move" name="bottom_dd"/>
    </contour>
    <contour>
      <point x="683" y="0" type="move" name="bottom"/>
    </contour>
  </outline>
</glyph>
<glyph name="P" format="1">
  <advance width="1230"/>
  <unicode hex="0050"/>
  <outline>
    <contour>
      <point x="655" y="414" type="line"/>
      <point x="966" y="414"/>
      <point x="1125" y="523"/>
      <point x="1125" y="703" type="curve"/>
      <point x="1125" y="880"/>
      <point x="965" y="1000"/>
      <point x="655" y="1000" type="curve"/>
      <point x="200" y="1000" type="line"/>
      <point x="200" y="0" type="line"/>
      <point x="254" y="0" type="line"/>
      <point x="254" y="944" type="line"/>
      <point x="655" y="944" type="line"/>
      <point x="949" y="944"/>
      <point x="1071" y="835"/>
      <point x="1071" y="703" type="curve"/>
      <point x="1071" y="572"/>
      <point x="949" y="470"/>
      <point x="655" y="470" type="curve"/>
      <point x="213" y="470" type="line"/>
      <point x="213" y="414" type="line"/>
    </contour>
    <contour>
      <point x="1230" y="1154" type="move" name="top0315"/>
    </contour>
    <contour>
      <point x="1230" y="1600" type="move" name="top_dd"/>
    </contour>
    <contour>
      <point x="560" y="1154" type="move" name="top"/>
    </contour>
    <contour>
      <point x="-8" y="1006" type="move" name="tonos"/>
    </contour>
    <contour>
      <point x="1230" y="-407" type="move" name="bottom_dd"/>
    </contour>
    <contour>
      <point x="530" y="10" type="move" name="bottom"/>
    </contour>
  </outline>
</glyph>
<glyph name="R" format="1">
  <advance width="1340"/>
  <unicode hex="0052"/>
  <outline>
    <contour>
      <point x="195" y="1000" type="line"/>
      <point x="195" y="0" type="line"/>
      <point x="249" y="0" type="line"/>
      <point x="249" y="944" type="line"/>
      <point x="659" y="944" type="line" smooth="yes"/>
      <point x="917" y="944"/>
      <point x="1083" y="842"/>
      <point x="1083" y="694" type="curve" smooth="yes"/>
      <point x="1083" y="576"/>
      <point x="957" y="464"/>
      <point x="708" y="464" type="curve" smooth="yes"/>
      <point x="206" y="464" type="line"/>
      <point x="208" y="410" type="line"/>
      <point x="765" y="410" type="line"/>
      <point x="796" y="419" type="line"/>
      <point x="985" y="442"/>
      <point x="1137" y="551"/>
      <point x="1137" y="694" type="curve" smooth="yes"/>
      <point x="1137" y="884"/>
      <point x="937" y="1000"/>
      <point x="659" y="1000" type="curve" smooth="yes"/>
    </contour>
    <contour>
      <point x="1141" y="0" type="line"/>
      <point x="1198" y="0" type="line"/>
      <point x="1198" y="8" type="line"/>
      <point x="805" y="432" type="line"/>
      <point x="742" y="430" type="line"/>
    </contour>
    <contour>
      <point x="1340" y="1154" type="move" name="top0315"/>
    </contour>
    <contour>
      <point x="1340" y="1600" type="move" name="top_dd"/>
    </contour>
    <contour>
      <point x="606" y="1154" type="move" name="top"/>
    </contour>
    <contour>
      <point x="1340" y="-407" type="move" name="bottom_dd"/>
    </contour>
    <contour>
      <point x="606" y="7" type="move" name="bottom"/>
    </contour>
  </outline>
</glyph>
<glyph name="S" format="1">
  <advance width="1211"/>
  <unicode hex="0053"/>
  <outline>
    <contour>
      <point x="1072" y="242" type="curve"/>
      <point x="1072" y="121"/>
      <point x="889" y="39"/>
      <point x="633" y="39" type="curve" smooth="yes"/>
      <point x="423" y="39"/>
      <point x="150" y="98"/>
      <point x="150" y="283" type="curve"/>
      <point x="96" y="283" type="line"/>
      <point x="96" y="65"/>
      <point x="384" y="-14"/>
      <point x="633" y="-14" type="curve" smooth="yes"/>
      <point x="905" y="-14"/>
      <point x="1127" y="80"/>
      <point x="1127" y="243" type="curve"/>
      <point x="1127" y="408"/>
      <point x="925" y="483"/>
      <point x="638" y="535" type="curve"/>
      <point x="290" y="594"/>
      <point x="197" y="661"/>
      <point x="197" y="763" type="curve"/>
      <point x="197" y="868"/>
      <point x="351" y="958"/>
      <point x="626" y="958" type="curve" smooth="yes"/>
      <point x="885" y="958"/>
      <point x="1057" y="855"/>
      <point x="1057" y="715" type="curve"/>
      <point x="1111" y="715" type="line"/>
      <point x="1111" y="888"/>
      <point x="909" y="1014"/>
      <point x="626" y="1014" type="curve" smooth="yes"/>
      <point x="351" y="1014"/>
      <point x="143" y="916"/>
      <point x="143" y="761" type="curve"/>
      <point x="143" y="602"/>
      <point x="326" y="534"/>
      <point x="623" y="480" type="curve" smooth="yes"/>
      <point x="953" y="424"/>
      <point x="1072" y="359"/>
    </contour>
    <contour>
      <point x="1211" y="1143" type="move" name="top0315"/>
    </contour>
    <contour>
      <point x="1211" y="1600" type="move" name="top_dd"/>
    </contour>
    <contour>
      <point x="632" y="1143" type="move" name="top"/>
    </contour>
    <contour>
      <point x="1211" y="-407" type="move" name="bottom_dd"/>
    </contour>
    <contour>
      <point x="632" y="-4" type="move" name="bottom"/>
    </contour>
  </outline>
</glyph>
<glyph name="U" format="1">
  <advance width="1365"/>
  <unicode hex="0055"/>
  <outline>
    <contour>
      <point x="1126" y="1000" type="line"/>
      <point x="1126" y="322" type="line" smooth="yes"/>
      <point x="1126" y="138"/>
      <point x="935" y="39"/>
      <point x="683" y="39" type="curve" smooth="yes"/>
      <point x="431" y="39"/>
      <point x="239" y="138"/>
      <point x="239" y="322" type="curve" smooth="yes"/>
      <point x="239" y="1000" type="line"/>
      <point x="185" y="1000" type="line"/>
      <point x="185" y="322" type="line"/>
      <point x="185" y="98"/>
      <point x="399" y="-14"/>
      <point x="683" y="-14" type="curve" smooth="yes"/>
      <point x="967" y="-14"/>
      <point x="1180" y="98"/>
      <point x="1180" y="322" type="curve"/>
      <point x="1180" y="1000" type="line"/>
    </contour>
    <contour>
      <point x="936" y="13" type="move" name="ogonek"/>
    </contour>
    <contour>
      <point x="1365" y="1600" type="move" name="top_dd"/>
    </contour>
    <contour>
      <point x="683" y="0" type="move" name="bottom"/>
    </contour>
    <contour>
      <point x="1365" y="-407" type="move" name="bottom_dd"/>
    </contour>
    <contour>
      <point x="1365" y="1154" type="move" name="top0315"/>
    </contour>
    <contour>
      <point x="697" y="1154" type="move" name="top"/>
    </contour>
    <contour>
      <point x="799" y="0" type="move" name="right"/>
    </contour>
  </outline>
</glyph>
<glyph name="W" format="1">
  <advance width="1855"/>
  <unicode hex="0057"/>
  <outline>
    <contour>
      <point x="555" y="249" type="line"/>
      <point x="464" y="0" type="line"/>
      <point x="515" y="0" type="line"/>
      <point x="879" y="803" type="line"/>
      <point x="957" y="1000" type="line"/>
      <point x="899" y="1000" type="line"/>
    </contour>
    <contour>
      <point x="121" y="1000" type="line"/>
      <point x="61" y="1000" type="line"/>
      <point x="454" y="0" type="line"/>
      <point x="514" y="0" type="line"/>
      <point x="423" y="255" type="line"/>
    </contour>
    <contour>
      <point x="1434" y="255" type="line"/>
      <point x="1341" y="0" type="line"/>
      <point x="1401" y="0" type="line"/>
      <point x="1793" y="1000" type="line"/>
      <point x="1734" y="1000" type="line"/>
    </contour>
    <contour>
      <point x="959" y="1000" type="line"/>
      <point x="900" y="1000" type="line"/>
      <point x="979" y="803" type="line"/>
      <point x="1340" y="0" type="line"/>
      <point x="1391" y="0" type="line"/>
      <point x="1301" y="249" type="line"/>
    </contour>
    <contour>
      <point x="1855" y="1154" type="move" name="top0315"/>
    </contour>
    <contour>
      <point x="1855" y="1600" type="move" name="top_dd"/>
    </contour>
    <contour>
      <point x="926" y="1154" type="move" name="top"/>
    </contour>
    <contour>
      <point x="1855" y="-407" type="move" name="bottom_dd"/>
    </contour>
    <contour>
      <point x="926" y="10" type="move" name="bottom"/>
    </contour>
  </outline>
</glyph>
<glyph name="X" format="1">
  <advance width="1223"/>
  <unicode hex="0058"/>
  <outline>
    <contour>
      <point x="141" y="1000" type="line"/>
      <point x="73" y="1000" type="line"/>
      <point x="577" y="508" type="line"/>
      <point x="54" y="0" type="line"/>
      <point x="119" y="0" type="line"/>
      <point x="611" y="460" type="line"/>
      <point x="1101" y="0" type="line"/>
      <point x="1168" y="0" type="line"/>
      <point x="645" y="508" type="line"/>
      <point x="1149" y="1000" type="line"/>
      <point x="1081" y="1000" type="line"/>
      <point x="611" y="555" type="line"/>
    </contour>
    <contour>
      <point x="1223" y="1600" type="move" name="top_dd"/>
    </contour>
    <contour>
      <point x="612" y="513" type="move" name="cross"/>
    </contour>
    <contour>
      <point x="655" y="7" type="move" name="bottom"/>
    </contour>
    <contour>
      <point x="1223" y="-407" type="move" name="bottom_dd"/>
    </contour>
    <contour>
      <point x="1223" y="1154" type="move" name="top0315"/>
    </contour>
    <contour>
      <point x="663" y="1154" type="move" name="top"/>
    </contour>
    <contour>
      <point x="1120" y="0" type="move" name="right"/>
    </contour>
  </outline>
</glyph>
<glyph name="Z" format="1">
  <advance width="1224"/>
  <unicode hex="005A"/>
  <outline>
    <contour>
      <point x="1130" y="54" type="line"/>
      <point x="111" y="54" type="line"/>
      <point x="111" y="0" type="line"/>
      <point x="1130" y="0" type="line"/>
    </contour>
    <contour>
      <point x="1098" y="956" type="line"/>
      <point x="1098" y="1000" type="line"/>
      <point x="1059" y="1000" type="line"/>
      <point x="94" y="47" type="line"/>
      <point x="94" y="0" type="line"/>
      <point x="131" y="0" type="line"/>
    </contour>
    <contour>
      <point x="1072" y="1000" type="line"/>
      <point x="134" y="1000" type="line"/>
      <point x="134" y="945" type="line"/>
      <point x="1072" y="945" type="line"/>
    </contour>
    <contour>
      <point x="1224" y="1154" type="move" name="top0315"/>
    </contour>
    <contour>
      <point x="1224" y="1600" type="move" name="top_dd"/>
    </contour>
    <contour>
      <point x="609" y="1154" type="move" name="top"/>
    </contour>
    <contour>
      <point x="1224" y="-407" type="move" name="bottom_dd"/>
    </contour>
    <contour>
      <point x="643" y="10" type="move" name="bottom"/>
    </contour>
  </outline>
</glyph>
<glyph name="uni024F" format="1">
  <advance width="1047"/>
  <unicode hex="024F"/>
  <outline>
    <contour>
      <point x="1007" y="642" type="line"/>
      <point x="40" y="642" type="line"/>
      <point x="40" y="588" type="line"/>
      <point x="1007" y="588" type="line"/>
    </contour>
    <component base="y" xOffset="26"/>
    <contour>
      <point x="519" y="1293" type="move" name="top"/>
    </contour>
    <contour>
      <point x="717" y="-158" type="move" name="bottom"/>
    </contour>
    <contour>
      <point x="1047" y="1293" type="move" name="top0315"/>
    </contour>
  </outline>
</glyph>
<glyph name="Gsmallcaphook" format="1">
  <advance width="1276"/>
  <unicode hex="029B"/>
  <outline>
    <contour>
      <point x="1003" y="768" type="line"/>
      <point x="1003" y="786" type="line" smooth="yes"/>
      <point x="1003" y="973"/>
      <point x="1046" y="1080"/>
      <point x="1194" y="1080" type="curve" smooth="yes"/>
      <point x="1231" y="1080"/>
      <point x="1272" y="1070"/>
      <point x="1293" y="1062" type="curve"/>
      <point x="1306" y="1114" type="line"/>
      <point x="1267" y="1127"/>
      <point x="1235" y="1134"/>
      <point x="1194" y="1134" type="curve" smooth="yes"/>
      <point x="1015" y="1134"/>
      <point x="949" y="1011"/>
      <point x="949" y="786" type="curve" smooth="yes"/>
      <point x="949" y="768" type="line"/>
    </contour>
    <component base="Gsmallcap" xOffset="-43"/>
    <contour>
      <point x="573" y="1290" type="move" name="top"/>
    </contour>
    <contour>
      <point x="573" y="0" type="move" name="bottom"/>
    </contour>
    <contour>
      <point x="1276" y="1290" type="move" name="top0315"/>
    </contour>
  </outline>
</glyph>
<glyph name="uni02EB" format="1">
  <advance width="837"/>
  <unicode hex="02EB"/>
  <outline>
    <contour>
      <point x="797" y="480" type="line"/>
      <point x="224" y="480" type="line"/>
      <point x="224" y="426" type="line"/>
      <point x="797" y="426" type="line"/>
    </contour>
    <contour>
      <point x="254" y="908" type="line"/>
      <point x="200" y="908" type="line"/>
      <point x="200" y="0" type="line"/>
      <point x="254" y="0" type="line"/>
    </contour>
  </outline>
</glyph>
<glyph name="uni035C" format="1">
  <advance width="0"/>
  <unicode hex="035C"/>
  <outline>
    <component base="uni035D" yOffset="-1600"/>
    <contour>
      <point x="0" y="-40" type="move" name="_markbottom_dd"/>
    </contour>
  </outline>
</glyph>
<glyph name="Delta" format="1">
  <advance width="1411"/>
  <unicode hex="0394"/>
  <outline>
    <contour>
      <point x="676" y="1325" type="line"/>
      <point x="725" y="1456" type="line"/>
      <point x="674" y="1456" type="line"/>
      <point x="58" y="0" type="line"/>
      <point x="117" y="0" type="line"/>
    </contour>
    <contour>
      <point x="1296" y="0" type="line"/>
      <point x="1356" y="0" type="line"/>
      <point x="739" y="1456" type="line"/>
      <point x="687" y="1456" type="line"/>
      <point x="736" y="1325" type="line"/>
    </contour>
    <contour>
      <point x="1304" y="54" type="line"/>
      <point x="99" y="54" type="line"/>
      <point x="99" y="0" type="line"/>
      <point x="1304" y="0" type="line"/>
    </contour>
  </outline>
</glyph>
<glyph name="uni03D9" format="1">
  <advance width="1127"/>
  <unicode hex="03D9"/>
  <outline>
    <contour>
      <point x="590" y="20" type="line"/>
      <point x="536" y="20" type="line"/>
      <point x="536" y="-416" type="line"/>
      <point x="590" y="-416" type="line"/>
    </contour>
    <component base="o"/>
  </outline>
</glyph>
<glyph name="uni0426" format="1">
  <advance width="1426"/>
  <unicode hex="0426"/>
  <outline>
    <contour>
      <point x="1355" y="54" type="line"/>
      <point x="1157" y="54" type="line"/>
      <point x="1157" y="0" type="line"/>
      <point x="1301" y="0" type="line"/>
      <point x="1301" y="-351" type="line"/>
      <point x="1355" y="-351" type="line"/>
    </contour>
    <contour>
      <point x="184" y="0" type="line"/>
      <point x="1222" y="0" type="line"/>
      <point x="1222" y="1456" type="line"/>
      <point x="1168" y="1456" type="line"/>
      <point x="1168" y="54" type="line"/>
      <point x="238" y="54" type="line"/>
      <point x="238" y="1456" type="line"/>
      <point x="184" y="1456" type="line"/>
    </contour>
  </outline>
</glyph>
<glyph name="uni049B" format="1">
  <advance width="1016"/>
  <unicode hex="049B"/>
  <outline>
    <component base="uni043A"/>
    <component base="cyrillictic" xOffset="765"/>
    <contour>
      <point x="1016" y="1268" type="move" name="top0315"/>
    </contour>
  </outline>
</glyph>
<glyph name="uni1D16" format="1">
  <advance width="1102"/>
  <unicode hex="1D16"/>
  <outline>
    <contour>
      <point x="1014" y="541" type="line" name="hr00"/>
      <point x="1014" y="625" type="line" smooth="yes"/>
      <point x="1014" y="922"/>
      <point x="825" y="1102"/>
      <point x="550" y="1102" type="curve" smooth="yes"/>
      <point x="274" y="1102"/>
      <point x="88" y="922"/>
      <point x="88" y="625" type="curve" smooth="yes"/>
      <point x="88" y="541" type="line"/>
      <point x="142" y="541" type="line"/>
      <point x="142" y="626" type="line" smooth="yes"/>
      <point x="142" y="907"/>
      <point x="301" y="1048"/>
      <point x="550" y="1048" type="curve" smooth="yes"/>
      <point x="801" y="1048"/>
      <point x="960" y="907"/>
      <point x="960" y="626" type="curve" smooth="yes"/>
      <point x="960" y="541" type="line"/>
    </contour>
  </outline>
</glyph>
<glyph name="uni1DD3" format="1">
  <advance width="0"/>
  <unicode hex="1DD3"/>
  <outline>
    <contour>
      <point x="-541" y="1366" type="line"/>
      <point x="-541" y="1277"/>
      <point x="-609" y="1231"/>
      <point x="-701" y="1231" type="curve" smooth="yes"/>
      <point x="-801" y="1231"/>
      <point x="-860" y="1298"/>
      <point x="-860" y="1366" type="curve"/>
      <point x="-901" y="1366" type="line"/>
      <point x="-901" y="1280"/>
      <point x="-820" y="1191"/>
      <point x="-701" y="1191" type="curve" smooth="yes"/>
      <point x="-595" y="1191"/>
      <point x="-501" y="1249"/>
      <point x="-501" y="1366" type="curve"/>
    </contour>
    <contour>
      <point x="-181" y="1366" type="line"/>
      <point x="-181" y="1277"/>
      <point x="-249" y="1231"/>
      <point x="-341" y="1231" type="curve" smooth="yes"/>
      <point x="-441" y="1231"/>
      <point x="-500" y="1298"/>
      <point x="-500" y="1366" type="curve"/>
      <point x="-541" y="1366" type="line"/>
      <point x="-541" y="1280"/>
      <point x="-460" y="1191"/>
      <point x="-341" y="1191" type="curve" smooth="yes"/>
      <point x="-235" y="1191"/>
      <point x="-141" y="1249"/>
      <point x="-141" y="1366" type="curve"/>
    </contour>
    <contour>
      <point x="-521" y="1170" type="move" name="_marktop"/>
    </contour>
  </outline>
</glyph>
<glyph name="uni1DF5" format="1">
  <advance width="0"/>
  <unicode hex="1DF5"/>
  <outline>
    <component base="uni02D4" xOffset="-847" yOffset="1000"/>
    <contour>
      <point x="-563" y="1170" type="move" name="_marktop"/>
    </contour>
  </outline>
</glyph>
<glyph name="trianglebullet" format="1">
  <advance width="825"/>
  <unicode hex="2023"/>
  <outline>
    <contour>
      <point x="139" y="1004" type="curve"/>
      <point x="139" y="1004"/>
      <point x="139" y="278"/>
      <point x="139" y="278" type="curve"/>
      <point x="139" y="278"/>
      <point x="758" y="641"/>
      <point x="758" y="641" type="curve"/>
      <point x="758" y="641"/>
      <point x="139" y="1004"/>
    </contour>
  </outline>
</glyph>
<glyph name="uni2C69" format="1">
  <advance width="1300"/>
  <unicode hex="2C69"/>
  <outline>
    <contour>
      <point x="1235" y="54" type="line"/>
      <point x="1170" y="54" type="line"/>
      <point x="1180" y="11" type="line"/>
      <point x="1180" y="-349" type="line"/>
      <point x="1235" y="-349" type="line"/>
    </contour>
    <component base="K"/>
  </outline>
</glyph>
<glyph name="uniA743" format="1">
  <advance width="969"/>
  <unicode hex="A743"/>
  <outline>
    <contour>
      <point x="834" y="568" type="line"/>
      <point x="397" y="175" type="line"/>
      <point x="433" y="135" type="line"/>
      <point x="870" y="528" type="line"/>
    </contour>
    <component base="k"/>
  </outline>
</glyph>
<glyph name="N.smcp" format="1">
  <advance width="1449"/>
  <outline>
    <contour>
      <point x="1249" y="1456" type="line"/>
      <point x="1195" y="1456" type="line"/>
      <point x="1195" y="95" type="line"/>
      <point x="255" y="1456" type="line"/>
      <point x="200" y="1456" type="line"/>
      <point x="200" y="0" type="line"/>
      <point x="254" y="0" type="line"/>
      <point x="254" y="1365" type="line"/>
      <point x="1195" y="0" type="line"/>
      <point x="1249" y="0" type="line"/>
    </contour>
    <contour>
      <point x="1449" y="1612" type="move" name="top0315"/>
    </contour>
    <contour>
      <point x="1449" y="1600" type="move" name="top_dd"/>
    </contour>
    <contour>
      <point x="726" y="1612" type="move" name="top"/>
    </contour>
    <contour>
      <point x="1449" y="-407" type="move" name="bottom_dd"/>
    </contour>
    <contour>
      <point x="1249" y="0" type="move" name="right"/>
    </contour>
    <contour>
      <point x="726" y="10" type="move" name="bottom"/>
    </contour>
  </outline>
</glyph>
<glyph name="uni02E5_uni02E6" format="1">
  <advance width="800"/>
  <outline>
    <contour>
      <point x="600" y="0" type="line"/>
      <point x="600" y="1456" type="line"/>
      <point x="546" y="1456" type="line"/>
      <point x="546" y="1127" type="line"/>
      <point x="230" y="1456" type="line"/>
      <point x="193" y="1420" type="line"/>
      <point x="546" y="1051" type="line"/>
      <point x="546" y="0" type="line"/>
    </contour>
  </outline>
</glyph>
<glyph name="uni0496.smcp" format="1">
  <advance width="1639"/>
  <outline>
    <contour>
      <point x="1539" y="-331" type="line"/>
      <point x="1539" y="54" type="line"/>
      <point x="1485" y="54" type="line"/>
      <point x="1485" y="-331" type="line"/>
    </contour>
    <component base="uni0416.smcp"/>
  </outline>
</glyph>
